<mxfile host="app.diagrams.net" agent="Mozilla/5.0 (Macintosh; Intel Mac OS X 10_15_7) AppleWebKit/605.1.15 (KHTML, like Gecko) Version/17.1 Safari/605.1.15" version="25.0.3" pages="2">
  <diagram name="Page-1" id="8uCo21Dttt94qJpKGFE5">
    <mxGraphModel>
      <root>
        <mxCell id="0" />
        <mxCell id="1" parent="0" />
        <mxCell id="2" value="Zalando Infrastructure" style="whiteSpace=wrap;strokeWidth=2;verticalAlign=top;" vertex="1" parent="1">
          <mxGeometry x="8" y="8" width="1015" height="255" as="geometry" />
        </mxCell>
        <mxCell id="3" value="Web Application" style="whiteSpace=wrap;strokeWidth=2;" vertex="1" parent="2">
          <mxGeometry x="386" y="46" width="177" height="49" as="geometry" />
        </mxCell>
        <mxCell id="4" value="Injection Attacks" style="whiteSpace=wrap;strokeWidth=2;" vertex="1" parent="2">
          <mxGeometry x="43" y="169" width="182" height="49" as="geometry" />
        </mxCell>
        <mxCell id="5" value="Data Encryption" style="whiteSpace=wrap;strokeWidth=2;" vertex="1" parent="2">
          <mxGeometry x="275" y="169" width="174" height="49" as="geometry" />
        </mxCell>
        <mxCell id="6" value="DDoS Protection" style="whiteSpace=wrap;strokeWidth=2;" vertex="1" parent="2">
          <mxGeometry x="499" y="169" width="176" height="49" as="geometry" />
        </mxCell>
        <mxCell id="7" value="Authentication Mechanisms" style="whiteSpace=wrap;strokeWidth=2;" vertex="1" parent="2">
          <mxGeometry x="725" y="169" width="256" height="49" as="geometry" />
        </mxCell>
        <mxCell id="8" value="" style="curved=1;startArrow=none;endArrow=block;exitX=0;exitY=0.81;entryX=0.5;entryY=0;" edge="1" parent="2" source="3" target="4">
          <mxGeometry relative="1" as="geometry">
            <Array as="points">
              <mxPoint x="134" y="132" />
            </Array>
          </mxGeometry>
        </mxCell>
        <mxCell id="9" value="" style="curved=1;startArrow=none;endArrow=block;exitX=0.25;exitY=0.98;entryX=0.5;entryY=0;" edge="1" parent="2" source="3" target="5">
          <mxGeometry relative="1" as="geometry">
            <Array as="points">
              <mxPoint x="362" y="132" />
            </Array>
          </mxGeometry>
        </mxCell>
        <mxCell id="10" value="" style="curved=1;startArrow=none;endArrow=block;exitX=0.75;exitY=0.98;entryX=0.5;entryY=0;" edge="1" parent="2" source="3" target="6">
          <mxGeometry relative="1" as="geometry">
            <Array as="points">
              <mxPoint x="587" y="132" />
            </Array>
          </mxGeometry>
        </mxCell>
        <mxCell id="11" value="" style="curved=1;startArrow=none;endArrow=block;exitX=1;exitY=0.78;entryX=0.5;entryY=0;" edge="1" parent="2" source="3" target="7">
          <mxGeometry relative="1" as="geometry">
            <Array as="points">
              <mxPoint x="853" y="132" />
            </Array>
          </mxGeometry>
        </mxCell>
        <mxCell id="12" value="Internal Environment" style="whiteSpace=wrap;strokeWidth=2;verticalAlign=top;" vertex="1" parent="1">
          <mxGeometry x="245" y="313" width="542" height="626" as="geometry" />
        </mxCell>
        <mxCell id="13" value="SecOps Team" style="whiteSpace=wrap;strokeWidth=2;" vertex="1" parent="12">
          <mxGeometry x="206" y="46" width="155" height="49" as="geometry" />
        </mxCell>
        <mxCell id="14" value="Asset Inventory" style="whiteSpace=wrap;strokeWidth=2;" vertex="1" parent="12">
          <mxGeometry x="199" y="169" width="170" height="49" as="geometry" />
        </mxCell>
        <mxCell id="15" value="Data Classification" style="whiteSpace=wrap;strokeWidth=2;" vertex="1" parent="12">
          <mxGeometry x="187" y="293" width="193" height="49" as="geometry" />
        </mxCell>
        <mxCell id="16" value="Access Controls" style="whiteSpace=wrap;strokeWidth=2;" vertex="1" parent="12">
          <mxGeometry x="198" y="416" width="171" height="49" as="geometry" />
        </mxCell>
        <mxCell id="17" value="Incident Response Plan" style="whiteSpace=wrap;strokeWidth=2;" vertex="1" parent="12">
          <mxGeometry x="43" y="540" width="225" height="49" as="geometry" />
        </mxCell>
        <mxCell id="18" value="Red Team Testing" style="whiteSpace=wrap;strokeWidth=2;" vertex="1" parent="12">
          <mxGeometry x="318" y="540" width="188" height="49" as="geometry" />
        </mxCell>
        <mxCell id="19" value="" style="curved=1;startArrow=none;endArrow=block;exitX=0.5;exitY=0.98;entryX=0.5;entryY=0;" edge="1" parent="12" source="13" target="14">
          <mxGeometry relative="1" as="geometry">
            <Array as="points" />
          </mxGeometry>
        </mxCell>
        <mxCell id="20" value="" style="curved=1;startArrow=none;endArrow=block;exitX=0.5;exitY=0.99;entryX=0.5;entryY=-0.01;" edge="1" parent="12" source="14" target="15">
          <mxGeometry relative="1" as="geometry">
            <Array as="points" />
          </mxGeometry>
        </mxCell>
        <mxCell id="21" value="" style="curved=1;startArrow=none;endArrow=block;exitX=0.5;exitY=0.99;entryX=0.5;entryY=0.01;" edge="1" parent="12" source="15" target="16">
          <mxGeometry relative="1" as="geometry">
            <Array as="points" />
          </mxGeometry>
        </mxCell>
        <mxCell id="22" value="" style="curved=1;startArrow=none;endArrow=block;exitX=0.21;exitY=1;entryX=0.5;entryY=0;" edge="1" parent="12" source="16" target="17">
          <mxGeometry relative="1" as="geometry">
            <Array as="points">
              <mxPoint x="155" y="502" />
            </Array>
          </mxGeometry>
        </mxCell>
        <mxCell id="23" value="" style="curved=1;startArrow=none;endArrow=block;exitX=0.8;exitY=1;entryX=0.5;entryY=0;" edge="1" parent="12" source="16" target="18">
          <mxGeometry relative="1" as="geometry">
            <Array as="points">
              <mxPoint x="412" y="502" />
            </Array>
          </mxGeometry>
        </mxCell>
        <mxCell id="24" value="External Environment" style="whiteSpace=wrap;strokeWidth=2;verticalAlign=top;" vertex="1" parent="1">
          <mxGeometry x="367" y="989" width="298" height="520" as="geometry" />
        </mxCell>
        <mxCell id="25" value="External Adversaries" style="whiteSpace=wrap;strokeWidth=2;" vertex="1" parent="24">
          <mxGeometry x="50" y="46" width="207" height="49" as="geometry" />
        </mxCell>
        <mxCell id="26" value="Threat Intelligence Gathering" style="whiteSpace=wrap;strokeWidth=2;" vertex="1" parent="24">
          <mxGeometry x="54" y="169" width="197" height="66" as="geometry" />
        </mxCell>
        <mxCell id="27" value="Threat Actor Profiling" style="whiteSpace=wrap;strokeWidth=2;" vertex="1" parent="24">
          <mxGeometry x="45" y="310" width="216" height="49" as="geometry" />
        </mxCell>
        <mxCell id="28" value="Vulnerability Scanning" style="whiteSpace=wrap;strokeWidth=2;" vertex="1" parent="24">
          <mxGeometry x="43" y="434" width="220" height="49" as="geometry" />
        </mxCell>
        <mxCell id="29" value="" style="curved=1;startArrow=none;endArrow=block;exitX=0.5;exitY=0.98;entryX=0.5;entryY=0;" edge="1" parent="24" source="25" target="26">
          <mxGeometry relative="1" as="geometry">
            <Array as="points" />
          </mxGeometry>
        </mxCell>
        <mxCell id="30" value="" style="curved=1;startArrow=none;endArrow=block;exitX=0.5;exitY=1;entryX=0.5;entryY=0.01;" edge="1" parent="24" source="26" target="27">
          <mxGeometry relative="1" as="geometry">
            <Array as="points" />
          </mxGeometry>
        </mxCell>
        <mxCell id="31" value="" style="curved=1;startArrow=none;endArrow=block;exitX=0.5;exitY=1;entryX=0.5;entryY=0;" edge="1" parent="24" source="27" target="28">
          <mxGeometry relative="1" as="geometry">
            <Array as="points" />
          </mxGeometry>
        </mxCell>
      </root>
    </mxGraphModel>
  </diagram>
  <diagram id="gNr2HnvqKmG5Y6MUdSiQ" name="Page-2">
    <mxGraphModel dx="934" dy="614" grid="1" gridSize="10" guides="1" tooltips="1" connect="1" arrows="1" fold="1" page="1" pageScale="1" pageWidth="850" pageHeight="1100" background="none" math="0" shadow="0">
      <root>
        <mxCell id="0" />
        <mxCell id="1" parent="0" />
        <mxCell id="b5F2MMVgCwlKpUd0V6zs-2" value="Article Database" style="shape=cylinder3;whiteSpace=wrap;html=1;boundedLbl=1;backgroundOutline=1;size=15;" vertex="1" parent="1">
          <mxGeometry x="530" y="130" width="80" height="80" as="geometry" />
        </mxCell>
        <mxCell id="b5F2MMVgCwlKpUd0V6zs-3" value="" style="shape=cube;whiteSpace=wrap;html=1;boundedLbl=1;backgroundOutline=1;darkOpacity=0.05;darkOpacity2=0.1;" vertex="1" parent="1">
          <mxGeometry x="20" y="260" width="120" height="80" as="geometry" />
        </mxCell>
        <mxCell id="b5F2MMVgCwlKpUd0V6zs-4" value="Customer journey service" style="rounded=0;whiteSpace=wrap;html=1;" vertex="1" parent="1">
          <mxGeometry x="280" y="400" width="90" height="60" as="geometry" />
        </mxCell>
        <mxCell id="b5F2MMVgCwlKpUd0V6zs-5" value="Customer journey Representative" style="shape=cylinder3;whiteSpace=wrap;html=1;boundedLbl=1;backgroundOutline=1;size=15;" vertex="1" parent="1">
          <mxGeometry x="280" y="530" width="100" height="80" as="geometry" />
        </mxCell>
        <mxCell id="b5F2MMVgCwlKpUd0V6zs-7" value="PDP" style="whiteSpace=wrap;html=1;aspect=fixed;" vertex="1" parent="1">
          <mxGeometry x="260" y="150" width="140" height="140" as="geometry" />
        </mxCell>
        <mxCell id="b5F2MMVgCwlKpUd0V6zs-8" value="Search Engine" style="whiteSpace=wrap;html=1;aspect=fixed;" vertex="1" parent="1">
          <mxGeometry x="530" y="320" width="80" height="80" as="geometry" />
        </mxCell>
        <mxCell id="b5F2MMVgCwlKpUd0V6zs-10" value="" style="endArrow=classic;html=1;rounded=0;entryX=0.5;entryY=1;entryDx=0;entryDy=0;" edge="1" parent="1" target="b5F2MMVgCwlKpUd0V6zs-7">
          <mxGeometry width="50" height="50" relative="1" as="geometry">
            <mxPoint x="329.5" y="400" as="sourcePoint" />
            <mxPoint x="329.5" y="330" as="targetPoint" />
          </mxGeometry>
        </mxCell>
        <mxCell id="b5F2MMVgCwlKpUd0V6zs-11" value="" style="endArrow=classic;html=1;rounded=0;" edge="1" parent="1">
          <mxGeometry width="50" height="50" relative="1" as="geometry">
            <mxPoint x="329.5" y="530" as="sourcePoint" />
            <mxPoint x="329.5" y="460" as="targetPoint" />
          </mxGeometry>
        </mxCell>
        <mxCell id="b5F2MMVgCwlKpUd0V6zs-12" value="" style="endArrow=none;html=1;rounded=0;entryX=0;entryY=0.75;entryDx=0;entryDy=0;" edge="1" parent="1" target="b5F2MMVgCwlKpUd0V6zs-8">
          <mxGeometry width="50" height="50" relative="1" as="geometry">
            <mxPoint x="330" y="380" as="sourcePoint" />
            <mxPoint x="380" y="330" as="targetPoint" />
          </mxGeometry>
        </mxCell>
        <mxCell id="b5F2MMVgCwlKpUd0V6zs-13" value="" style="endArrow=classic;html=1;rounded=0;" edge="1" parent="1">
          <mxGeometry width="50" height="50" relative="1" as="geometry">
            <mxPoint x="570" y="210" as="sourcePoint" />
            <mxPoint x="569.5" y="320" as="targetPoint" />
          </mxGeometry>
        </mxCell>
      </root>
    </mxGraphModel>
  </diagram>
</mxfile>
